<svg xmlns="http://www.w3.org/2000/svg" version="1.1" xmlns:xlink="http://www.w3.org/1999/xlink" xmlns:svgjs="http://svgjs.dev/svgjs" width="1000" height="378" viewBox="0 0 1000 378"><g transform="matrix(1,0,0,1,-0.6060606060606233,0.26760696266563855)"><svg viewBox="0 0 396 150" data-background-color="#8abe53" preserveAspectRatio="xMidYMid meet" height="378" width="1000" xmlns="http://www.w3.org/2000/svg" xmlns:xlink="http://www.w3.org/1999/xlink"><g id="tight-bounds" transform="matrix(1,0,0,1,0.2400000000000091,-0.10619323915302914)"><svg viewBox="0 0 395.52 150.21238627309415" height="150.21238627309415" width="395.52"><g><svg viewBox="0 0 395.52 150.21238627309415" height="150.21238627309415" width="395.52"><g transform="matrix(1,0,0,1,0,90.83259267382017)"><svg viewBox="0 0 395.52 59.379793599273974" height="59.379793599273974" width="395.52"><g><svg viewBox="0 0 395.52 59.379793599273974" height="59.379793599273974" width="395.52"><g><svg viewBox="0 0 395.52 37.147858823529404" height="37.147858823529404" width="395.52"><g transform="matrix(1,0,0,1,0,0)"><svg width="395.52" viewBox="1.75 -35.400001525878906 509.94000244140625 47.900001525878906" height="37.147858823529404" data-palette-color="#4d7e3e"><path d="M28.7-2L28.7-2 28.7-14.9 19.4-14.9 19.4-14.2 28-14.2 28-2.45Q26.1-1.35 23.95-0.78 21.8-0.2 19.45-0.2L19.45-0.2Q15.95-0.2 12.85-1.55 9.75-2.9 7.45-5.25L7.45-5.25Q5.15-7.55 3.8-10.65 2.45-13.75 2.45-17.3L2.45-17.3Q2.45-20.85 3.8-24 5.15-27.15 7.5-29.5L7.5-29.5Q9.8-31.85 12.93-33.23 16.05-34.6 19.6-34.6L19.6-34.6Q22-34.6 24.23-33.98 26.45-33.35 28.35-32.2L28.35-32.2 28.75-32.8Q26.7-34 24.43-34.65 22.15-35.3 19.6-35.3L19.6-35.3Q15.9-35.3 12.65-33.88 9.4-32.45 7-30.05L7-30.05Q4.55-27.6 3.15-24.33 1.75-21.05 1.75-17.35L1.75-17.35Q1.75-13.65 3.15-10.4 4.55-7.15 7-4.75L7-4.75Q9.4-2.3 12.65-0.9 15.9 0.5 19.6 0.5L19.6 0.5Q22.15 0.5 24.43-0.18 26.7-0.85 28.7-2ZM32.2 0L40.9 0 40.9-0.7 36.85-0.7 36.85-11Q36.85-12.55 37.5-13.9 38.15-15.25 39.25-16.2L39.25-16.2Q40.4-17.2 41.87-17.78 43.35-18.35 45-18.4L45-18.4 45-19.1Q43.6-19.05 42.37-18.7 41.15-18.35 40.1-17.7L40.1-17.7Q38.95-17.05 38.1-16.07 37.25-15.1 36.7-13.85L36.7-13.85Q36.7-14.5 36.67-14.98 36.65-15.45 36.65-16.1L36.65-16.1 36.55-18.75 32.4-18.75 32.4-18.05 36.15-18.05 36.15-0.7 32.2-0.7 32.2 0ZM67.25 0L71.59 0 71.59-0.7 67.95-0.7 67.95-18.75 67.45-18.75Q67.34-17.3 67.3-15.88 67.25-14.45 67.25-13L67.25-13Q66.15-15.7 63.72-17.43 61.3-19.15 58.2-19.15L58.2-19.15Q56.15-19.15 54.4-18.38 52.65-17.6 51.35-16.3L51.35-16.3Q50-15 49.25-13.2 48.5-11.4 48.5-9.4L48.5-9.4Q48.5-7.35 49.25-5.6 50-3.85 51.35-2.55L51.35-2.55Q52.65-1.2 54.4-0.45 56.15 0.3 58.2 0.3L58.2 0.3Q59.75 0.3 61.17-0.15 62.6-0.6 63.8-1.45L63.8-1.45Q64.95-2.25 65.84-3.38 66.75-4.5 67.3-5.85L67.3-5.85Q67.3-5.05 67.27-4.28 67.25-3.5 67.25-2.7L67.25-2.7 67.25 0ZM58.2-18.45L58.2-18.45Q60.05-18.45 61.7-17.75 63.35-17.05 64.59-15.8L64.59-15.8Q65.84-14.55 66.55-12.9 67.25-11.25 67.25-9.4L67.25-9.4Q67.25-7.5 66.55-5.88 65.84-4.25 64.59-3.05L64.59-3.05Q63.35-1.8 61.7-1.1 60.05-0.4 58.2-0.4L58.2-0.4Q56.3-0.4 54.67-1.1 53.05-1.8 51.85-3.05L51.85-3.05Q50.6-4.25 49.9-5.88 49.2-7.5 49.2-9.4L49.2-9.4Q49.2-11.25 49.9-12.9 50.6-14.55 51.85-15.8L51.85-15.8Q53.05-17.05 54.67-17.75 56.3-18.45 58.2-18.45ZM75.44 11.8L75.44 12.5 84.14 12.5 84.14 11.8 79.49 11.8 79.49-3.05Q79.49-3.75 79.47-4.4 79.44-5.05 79.44-5.75L79.44-5.75Q79.94-4.4 80.84-3.28 81.74-2.15 82.94-1.35L82.94-1.35Q84.09-0.5 85.52-0.05 86.94 0.4 88.49 0.4L88.49 0.4Q90.49 0.4 92.27-0.38 94.04-1.15 95.39-2.45L95.39-2.45Q96.69-3.75 97.44-5.53 98.19-7.3 98.19-9.35L98.19-9.35Q98.19-11.35 97.44-13.13 96.69-14.9 95.39-16.25L95.39-16.25Q94.04-17.55 92.27-18.3 90.49-19.05 88.49-19.05L88.49-19.05Q85.34-19.05 82.89-17.32 80.44-15.6 79.39-12.85L79.39-12.85Q79.39-14.3 79.32-15.8 79.24-17.3 79.24-18.75L79.24-18.75 75.09-18.75 75.09-18.05 78.74-18.05 78.74 11.8 75.44 11.8ZM88.49-18.35L88.49-18.35Q90.34-18.35 91.99-17.65 93.64-16.95 94.89-15.75L94.89-15.75Q96.09-14.5 96.79-12.85 97.49-11.2 97.49-9.35L97.49-9.35Q97.49-7.45 96.79-5.83 96.09-4.2 94.89-2.95L94.89-2.95Q93.64-1.7 91.99-1 90.34-0.3 88.49-0.3L88.49-0.3Q86.59-0.3 84.97-1 83.34-1.7 82.09-2.95L82.09-2.95Q80.84-4.2 80.14-5.83 79.44-7.45 79.44-9.35L79.44-9.35Q79.44-11.2 80.14-12.85 80.84-14.5 82.09-15.75L82.09-15.75Q83.34-16.95 84.97-17.65 86.59-18.35 88.49-18.35ZM111.39-18.45L111.39-18.45Q113.89-18.45 115.91-17.03 117.94-15.6 118.94-13.3L118.94-13.3Q114.89-11.65 110.84-10.03 106.79-8.4 102.74-6.75L102.74-6.75Q102.09-8.9 102.52-11 102.94-13.1 104.19-14.75L104.19-14.75Q105.39-16.4 107.27-17.43 109.14-18.45 111.39-18.45ZM118.04-2.3L118.04-2.3 117.59-2.85Q116.39-1.7 114.79-1.05 113.19-0.4 111.39-0.4L111.39-0.4Q108.49-0.4 106.24-1.98 103.99-3.55 102.99-6.1L102.99-6.1Q107.24-7.85 111.41-9.53 115.59-11.2 119.84-12.95L119.84-12.95Q119.34-14.3 118.54-15.4 117.74-16.5 116.74-17.3L116.74-17.3Q115.64-18.2 114.27-18.68 112.89-19.15 111.39-19.15L111.39-19.15Q109.34-19.15 107.59-18.38 105.84-17.6 104.54-16.3L104.54-16.3Q103.19-15 102.44-13.2 101.69-11.4 101.69-9.4L101.69-9.4Q101.69-7.35 102.44-5.6 103.19-3.85 104.54-2.5L104.54-2.5Q105.84-1.2 107.59-0.45 109.34 0.3 111.39 0.3L111.39 0.3Q113.34 0.3 115.04-0.4 116.74-1.1 118.04-2.3ZM146.14-18.05L146.14-18.05 149.44-18.05 149.44-18.75 142.49-18.75 142.49-18.05 145.39-18.05Q143.14-13.5 140.89-9 138.64-4.5 136.59-0.4L136.59-0.4Q134.34-4.8 132.16-9.22 129.99-13.65 127.79-18.05L127.79-18.05 131.49-18.05 131.49-18.75 123.44-18.75 123.44-18.05 127.04-18.05Q129.44-13.2 131.81-8.45 134.19-3.7 136.59 1.15L136.59 1.15Q138.99-3.7 141.36-8.45 143.74-13.2 146.14-18.05ZM152.94 0L161.63 0 161.63-0.7 157.74-0.7 157.74-18.75 152.94-18.75 152.94-18.05 157.03-18.05 157.03-0.7 152.94-0.7 152.94 0ZM158.38-25L158.38-25Q158.38-25.4 158.09-25.7 157.78-26 157.38-26L157.38-26Q156.99-26 156.69-25.7 156.38-25.4 156.38-25L156.38-25Q156.38-24.6 156.69-24.3 156.99-24 157.38-24L157.38-24Q157.78-24 158.09-24.3 158.38-24.6 158.38-25ZM165.13 0L173.83 0 173.83-0.7 169.78-0.7 169.78-11Q169.78-12.6 170.46-13.98 171.13-15.35 172.33-16.35L172.33-16.35Q173.48-17.3 175.01-17.85 176.53-18.4 178.23-18.4L178.23-18.4Q180.43-18.3 181.66-16.98 182.88-15.65 182.98-13.85L182.98-13.85 182.98-0.7 179.03-0.7 179.03 0 187.73 0 187.73-0.7 183.68-0.7 183.68-13.5Q183.58-16 182.06-17.55 180.53-19.1 177.88-19.1L177.88-19.1Q175.03-19.1 172.83-17.65 170.63-16.2 169.63-13.85L169.63-13.85Q169.63-14.5 169.61-14.98 169.58-15.45 169.58-16.1L169.58-16.1 169.48-18.75 165.33-18.75 165.33-18.05 169.08-18.05 169.08-0.7 165.13-0.7 165.13 0ZM200.93-18.45L200.93-18.45Q203.43-18.45 205.45-17.03 207.48-15.6 208.48-13.3L208.48-13.3Q204.43-11.65 200.38-10.03 196.33-8.4 192.28-6.75L192.28-6.75Q191.63-8.9 192.05-11 192.48-13.1 193.73-14.75L193.73-14.75Q194.93-16.4 196.8-17.43 198.68-18.45 200.93-18.45ZM207.58-2.3L207.58-2.3 207.13-2.85Q205.93-1.7 204.33-1.05 202.73-0.4 200.93-0.4L200.93-0.4Q198.03-0.4 195.78-1.98 193.53-3.55 192.53-6.1L192.53-6.1Q196.78-7.85 200.95-9.53 205.13-11.2 209.38-12.95L209.38-12.95Q208.88-14.3 208.08-15.4 207.28-16.5 206.28-17.3L206.28-17.3Q205.18-18.2 203.8-18.68 202.43-19.15 200.93-19.15L200.93-19.15Q198.88-19.15 197.13-18.38 195.38-17.6 194.08-16.3L194.08-16.3Q192.73-15 191.98-13.2 191.23-11.4 191.23-9.4L191.23-9.4Q191.23-7.35 191.98-5.6 192.73-3.85 194.08-2.5L194.08-2.5Q195.38-1.2 197.13-0.45 198.88 0.3 200.93 0.3L200.93 0.3Q202.88 0.3 204.58-0.4 206.28-1.1 207.58-2.3ZM254.93-2.1L254.93-2.1 254.47-2.7Q252.53-1.55 250.3-0.93 248.07-0.3 245.68-0.3L245.68-0.3Q242.17-0.3 239.07-1.65 235.97-3 233.67-5.35L233.67-5.35Q231.38-7.65 230.03-10.75 228.67-13.85 228.67-17.4L228.67-17.4Q228.67-20.95 230.03-24.1 231.38-27.25 233.72-29.6L233.72-29.6Q236.03-31.95 239.15-33.33 242.28-34.7 245.82-34.7L245.82-34.7Q248.07-34.7 250.22-34.13 252.38-33.55 254.28-32.45L254.28-32.45 254.28-27.3 254.97-27.3 254.97-32.9Q252.93-34.1 250.65-34.75 248.38-35.4 245.82-35.4L245.82-35.4Q242.13-35.4 238.88-33.98 235.63-32.55 233.22-30.15L233.22-30.15Q230.78-27.7 229.38-24.43 227.97-21.15 227.97-17.45L227.97-17.45Q227.97-13.75 229.38-10.5 230.78-7.25 233.22-4.85L233.22-4.85Q235.63-2.4 238.88-1 242.13 0.4 245.82 0.4L245.82 0.4Q248.38 0.4 250.65-0.28 252.93-0.95 254.93-2.1ZM258.47 0L267.17 0 267.17-0.7 263.27-0.7 263.27-18.75 258.47-18.75 258.47-18.05 262.57-18.05 262.57-0.7 258.47-0.7 258.47 0ZM263.92-25L263.92-25Q263.92-25.4 263.62-25.7 263.32-26 262.92-26L262.92-26Q262.52-26 262.22-25.7 261.92-25.4 261.92-25L261.92-25Q261.92-24.6 262.22-24.3 262.52-24 262.92-24L262.92-24Q263.32-24 263.62-24.3 263.92-24.6 263.92-25ZM275.12 0L280.17 0 280.17-0.7 275.82-0.7 275.82-18.05 282.17-18.05 282.17-18.75 275.82-18.75 275.82-30.95 275.12-30.95 275.12-18.75 270.67-18.75 270.67-18.05 275.12-18.05 275.12 0ZM288.52 12.5L297.22 12.5 297.22 11.8 293.52 11.8Q297.27 4.3 300.94-3.13 304.62-10.55 308.37-18.05L308.37-18.05 311.67-18.05 311.67-18.75 304.72-18.75 304.72-18.05 307.47-18.05Q305.27-13.65 303.09-9.25 300.92-4.85 298.82-0.7L298.82-0.7Q296.62-5.05 294.47-9.35 292.32-13.65 290.17-18.05L290.17-18.05 293.72-18.05 293.72-18.75 285.67-18.75 285.67-18.05 289.27-18.05Q291.52-13.45 293.79-8.9 296.07-4.35 298.37 0.2L298.37 0.2Q296.92 3.05 295.47 5.98 294.02 8.9 292.57 11.8L292.57 11.8 288.52 11.8 288.52 12.5ZM330.16 0L338.96 0Q344.26 0 347.94-1.63 351.61-3.25 353.91-5.8L353.91-5.8Q356.21-8.35 357.24-11.45 358.26-14.55 358.26-17.5L358.26-17.5Q358.26-21.5 356.86-24.75 355.46-28 353.06-30.3L353.06-30.3Q350.66-32.55 347.46-33.77 344.26-35 340.66-35L340.66-35 330.16-35 330.16-34.3 333.81-34.3 333.81-0.7 330.16-0.7 330.16 0ZM334.51-0.7L334.51-34.3 340.96-34.3Q344.31-34.3 347.34-33.13 350.36-31.95 352.66-29.8L352.66-29.8Q354.96-27.6 356.29-24.48 357.61-21.35 357.61-17.5L357.61-17.5Q357.61-14.65 356.64-11.68 355.66-8.7 353.51-6.3L353.51-6.3Q351.31-3.85 347.84-2.27 344.36-0.7 339.41-0.7L339.41-0.7 334.51-0.7ZM361.76 0L370.46 0 370.46-0.7 366.56-0.7 366.56-18.75 361.76-18.75 361.76-18.05 365.86-18.05 365.86-0.7 361.76-0.7 361.76 0ZM367.21-25L367.21-25Q367.21-25.4 366.91-25.7 366.61-26 366.21-26L366.21-26Q365.81-26 365.51-25.7 365.21-25.4 365.21-25L365.21-25Q365.21-24.6 365.51-24.3 365.81-24 366.21-24L366.21-24Q366.61-24 366.91-24.3 367.21-24.6 367.21-25ZM373.96 0L382.66 0 382.66-0.7 378.61-0.7 378.61-11Q378.61-12.55 379.26-13.9 379.91-15.25 381.01-16.2L381.01-16.2Q382.16-17.2 383.63-17.78 385.11-18.35 386.76-18.4L386.76-18.4 386.76-19.1Q385.36-19.05 384.13-18.7 382.91-18.35 381.86-17.7L381.86-17.7Q380.71-17.05 379.86-16.07 379.01-15.1 378.46-13.85L378.46-13.85Q378.46-14.5 378.43-14.98 378.41-15.45 378.41-16.1L378.41-16.1 378.31-18.75 374.16-18.75 374.16-18.05 377.91-18.05 377.91-0.7 373.96-0.7 373.96 0ZM399.96-18.45L399.96-18.45Q402.46-18.45 404.48-17.03 406.51-15.6 407.51-13.3L407.51-13.3Q403.46-11.65 399.41-10.03 395.36-8.4 391.31-6.75L391.31-6.75Q390.66-8.9 391.08-11 391.51-13.1 392.76-14.75L392.76-14.75Q393.96-16.4 395.83-17.43 397.71-18.45 399.96-18.45ZM406.61-2.3L406.61-2.3 406.16-2.85Q404.96-1.7 403.36-1.05 401.76-0.4 399.96-0.4L399.96-0.4Q397.06-0.4 394.81-1.98 392.56-3.55 391.56-6.1L391.56-6.1Q395.81-7.85 399.98-9.53 404.16-11.2 408.41-12.95L408.41-12.95Q407.91-14.3 407.11-15.4 406.31-16.5 405.31-17.3L405.31-17.3Q404.21-18.2 402.83-18.68 401.46-19.15 399.96-19.15L399.96-19.15Q397.91-19.15 396.16-18.38 394.41-17.6 393.11-16.3L393.11-16.3Q391.76-15 391.01-13.2 390.26-11.4 390.26-9.4L390.26-9.4Q390.26-7.35 391.01-5.6 391.76-3.85 393.11-2.5L393.11-2.5Q394.41-1.2 396.16-0.45 397.91 0.3 399.96 0.3L399.96 0.3Q401.91 0.3 403.61-0.4 405.31-1.1 406.61-2.3ZM427.85-1.85L427.85-1.85 427.35-2.35Q426.2-1.45 424.75-0.93 423.3-0.4 421.7-0.4L421.7-0.4Q419.8-0.4 418.18-1.1 416.55-1.8 415.35-3.05L415.35-3.05Q414.1-4.25 413.4-5.88 412.7-7.5 412.7-9.4L412.7-9.4Q412.7-11.25 413.4-12.9 414.1-14.55 415.35-15.8L415.35-15.8Q416.55-17.05 418.18-17.75 419.8-18.45 421.7-18.45L421.7-18.45Q423.25-18.45 424.63-17.95 426-17.45 427.15-16.6L427.15-16.6 427.15-12.65 427.85-12.65 427.85-17Q426.6-18 425.03-18.57 423.45-19.15 421.7-19.15L421.7-19.15Q419.65-19.15 417.9-18.38 416.15-17.6 414.85-16.3L414.85-16.3Q413.5-15 412.75-13.2 412-11.4 412-9.4L412-9.4Q412-7.35 412.75-5.6 413.5-3.85 414.85-2.55L414.85-2.55Q416.15-1.2 417.9-0.45 419.65 0.3 421.7 0.3L421.7 0.3Q423.45 0.3 425-0.28 426.55-0.85 427.85-1.85ZM435.8 0L440.85 0 440.85-0.7 436.5-0.7 436.5-18.05 442.85-18.05 442.85-18.75 436.5-18.75 436.5-30.95 435.8-30.95 435.8-18.75 431.35-18.75 431.35-18.05 435.8-18.05 435.8 0ZM463.05-2.55L463.05-2.55Q464.35-3.85 465.12-5.6 465.9-7.35 465.9-9.4L465.9-9.4Q465.9-11.4 465.12-13.2 464.35-15 463.05-16.35L463.05-16.35Q461.7-17.65 459.9-18.43 458.1-19.2 456.1-19.2L456.1-19.2Q454.05-19.2 452.3-18.43 450.55-17.65 449.25-16.35L449.25-16.35Q447.9-15 447.15-13.2 446.4-11.4 446.4-9.4L446.4-9.4Q446.4-7.35 447.15-5.6 447.9-3.85 449.25-2.55L449.25-2.55Q450.55-1.2 452.3-0.45 454.05 0.3 456.1 0.3L456.1 0.3Q458.1 0.3 459.9-0.45 461.7-1.2 463.05-2.55ZM449.75-3.05L449.75-3.05Q448.5-4.25 447.8-5.88 447.1-7.5 447.1-9.4L447.1-9.4Q447.1-11.25 447.8-12.9 448.5-14.55 449.75-15.8L449.75-15.8Q450.95-17.05 452.57-17.75 454.2-18.45 456.1-18.45L456.1-18.45Q457.95-18.45 459.6-17.75 461.25-17.05 462.5-15.8L462.5-15.8Q463.75-14.55 464.45-12.9 465.15-11.25 465.15-9.4L465.15-9.4Q465.15-7.5 464.45-5.88 463.75-4.25 462.5-3.05L462.5-3.05Q461.25-1.8 459.6-1.1 457.95-0.4 456.1-0.4L456.1-0.4Q454.2-0.4 452.57-1.1 450.95-1.8 449.75-3.05ZM469.4 0L478.1 0 478.1-0.7 474.05-0.7 474.05-11Q474.05-12.55 474.7-13.9 475.35-15.25 476.45-16.2L476.45-16.2Q477.6-17.2 479.07-17.78 480.55-18.35 482.2-18.4L482.2-18.4 482.2-19.1Q480.8-19.05 479.57-18.7 478.35-18.35 477.3-17.7L477.3-17.7Q476.15-17.05 475.3-16.07 474.45-15.1 473.9-13.85L473.9-13.85Q473.9-14.5 473.87-14.98 473.85-15.45 473.85-16.1L473.85-16.1 473.75-18.75 469.6-18.75 469.6-18.05 473.35-18.05 473.35-0.7 469.4-0.7 469.4 0ZM488.54 12.5L497.24 12.5 497.24 11.8 493.54 11.8Q497.29 4.3 500.97-3.13 504.64-10.55 508.39-18.05L508.39-18.05 511.69-18.05 511.69-18.75 504.74-18.75 504.74-18.05 507.49-18.05Q505.29-13.65 503.12-9.25 500.94-4.85 498.84-0.7L498.84-0.7Q496.64-5.05 494.49-9.35 492.34-13.65 490.19-18.05L490.19-18.05 493.74-18.05 493.74-18.75 485.69-18.75 485.69-18.05 489.29-18.05Q491.54-13.45 493.82-8.9 496.09-4.35 498.39 0.2L498.39 0.2Q496.94 3.05 495.49 5.98 494.04 8.9 492.59 11.8L492.59 11.8 488.54 11.8 488.54 12.5Z" opacity="1" transform="matrix(1,0,0,1,0,0)" fill="#4d7e3e" class="undefined-text-0" data-fill-palette-color="primary" id="text-0"></path></svg></g></svg></g><g transform="matrix(1,0,0,1,75.54432,45.917576743152935)"><svg viewBox="0 0 244.43135999999998 13.462216856121044" height="13.462216856121044" width="244.43135999999998"><g transform="matrix(1,0,0,1,0,0)"><svg width="244.43135999999998" viewBox="1.5 -39 908.6500244140625 50.04999923706055" height="13.462216856121044" data-palette-color="#c6e0bd"><path d="M26.8-10.65L27.35-22.8 20.75-30.2 15.2-31.55 11.5-30.55 11.2-4.65 20.75-3.7 26.8-10.65ZM21.3-34.3L31.3-23.65 29.7-7.6 21.7 0.4 9-0.5 1.5-0.35 1.65-1.9 7.05-3.15 7.25-31.85 3.75-33.2 3.95-35 8.9-35.25 21.3-34.3ZM45.5-0.75L45.7 0.65 35.7 0.75 35.45-0.7 38.1-1.75 38.3-22.9 34.65-24.15 34.3-25.4 44.7-26 45.2-25 42.15-23.3 41.95-1.8 45.5-0.75ZM42.65-30.8L38.85-29.2 37.15-32.6 39.2-34.55 42.4-34.15 42.65-30.8ZM62.9-24.8L66.45-20.6 63.4-18 60.75-21.85 56.7-20.5 55.5-17.85 55.7-2.85 58.65-1.9 58.35-0.15 49.5-0.15 49.35-1.5 51.7-2.45 51.65-22.45 49.2-23.85 51.35-26.6 55-24.25 55.3-22.55 57.85-23.55 62.9-24.8ZM74.19-13.2L74.24-13.4 85.94-15.25 84.54-21.8 81.19-23.05 74.64-20.85 74.19-13.2ZM77.34-25.7L84.39-25.15 88.39-21.65 89.84-13.05 74.19-10.55 76.89-2.6 82.79-2.75 89.79-4.85 90.19-0.9 76.09 1.1 69.94-8 70.64-20.85 77.34-25.7ZM111.99-4.1L113.19-0.2 105.44 0.2 95.69-3 95.29-15.35 99.54-23.9 106.59-26.3 111.99-23.2 109.29-16.15 107.74-16.95 109.29-21.6 107.34-23.2 107.34-23.2 101.49-20.45 98.79-14.25 99.54-5.3 105.44-3 111.99-4.1ZM131.89-4.3L131.89-1.55 123.69 0 119.79-3.85 119.79-9 119.79-21.9 117.39-21.5 115.44-21.05 115.09-23.45 118.64-24.6 119.34-24.6 119.34-29.3 118.64-30.9 122.89-30.9 123.29-26.55 123.29-24.95 130.29-25.8 130.29-21.9 123.29-22.25 123.29-5.8 125.64-3.15 131.89-4.3ZM147.38-22.55L142.28-22.95 137.88-17.25 138.84-7.4 144.38-2.15 148.13-2.2 152.84-11.4 150.74-20.05 147.38-22.55ZM140.69-26.3L149.09-26.3 154.38-21.4 156.38-9.95 149.34 1.1 142.34 1.4 134.99-7.45 134.44-18.85 140.69-26.3ZM174.08-24.8L177.63-20.6 174.58-18 171.93-21.85 167.88-20.5 166.68-17.85 166.88-2.85 169.83-1.9 169.53-0.15 160.68-0.15 160.53-1.5 162.88-2.45 162.83-22.45 160.38-23.85 162.53-26.6 166.18-24.25 166.48-22.55 169.03-23.55 174.08-24.8ZM204.08-24.2L201.33-23.2 190.73 7.35 184.98 9.8 178.73 6.55 180.08 3.25 185.33 6.55 188.08 5.8 189.53 1.7 190.83-2.7 188.23-1.3 181.48-22.2 179.23-22.4 178.63-24.5 185.18-25.1 187.43-14.75 191.23-3.8 197.43-23.4 195.13-24.1 195.18-25.4 203.78-25.45 204.08-24.2ZM231.57-32.9L229.13-29.65 229.07-24.35 235.92-25.3 236.22-22.65 229.13-21.9 229.92-2.6 232.82-2.55 233.63-0.15 223.77-0.3 223.52-1.95 225.92-2.3 225.47-19.1 225.52-21.05 222.07-21.5 222.22-23.3 225.22-24.25 225.27-30.7 230.22-36.05 238.27-34.75 237.42-32 231.57-32.9ZM252.72-22.55L247.62-22.95 243.22-17.25 244.17-7.4 249.72-2.15 253.47-2.2 258.17-11.4 256.07-20.05 252.72-22.55ZM246.02-26.3L254.42-26.3 259.72-21.4 261.72-9.95 254.67 1.1 247.67 1.4 240.32-7.45 239.77-18.85 246.02-26.3ZM279.42-24.8L282.97-20.6 279.92-18 277.27-21.85 273.22-20.5 272.02-17.85 272.22-2.85 275.17-1.9 274.87-0.15 266.02-0.15 265.87-1.5 268.22-2.45 268.17-22.45 265.72-23.85 267.87-26.6 271.52-24.25 271.82-22.55 274.37-23.55 279.42-24.8ZM314.71-21.25L308.81-19.2 308.61-4.55 315.16-3 320.96-10.8 319.61-19.65 314.71-21.25ZM301.46-35.6L305.36-38.5 307.41-34.35 308.61-22.65 315.21-24.45 322.76-21.6 325.41-10.5 318.66-0.4 307.26-0.85 304.46-3.25 304.21-32.1 301.46-35.6ZM355.71-6.5L357.91-2.7 350.56 0.8 347.76 0.05 346.86-2.85 346.21-6.3 337.36 0.75 332.16-1.05 330.66-6.95 330.51-22.35 328.41-23.25 328.56-24.45 337.51-24.65 337.26-22.85 334.66-21.8 334.66-7.7 336.51-3.25 339.76-5.05 345.81-8.4 346.61-22.3 344.41-23.3 344.56-24.65 352.46-24.65 352.71-22.95 350.11-21.95 349.96-3.4 350.71-2.15 355.71-6.5ZM361.06-24.7L369.31-26.1 374.91-23.8 376.91-25.75 379.06-24.25 375.26-19.15 373.46-20.85 365.26-22.8 362.61-19.7 366.06-14.85 376.11-12.35 377.51-3.85 370.91 0.25 362.11-1.75 360.91 0.3 358.41-0.15 360.11-5.4 370.31-3 373.46-5.35 372.26-9.55 361.56-13.2 358.66-19.15 361.06-24.7ZM393.26-0.75L393.46 0.65 383.46 0.75 383.21-0.7 385.86-1.75 386.06-22.9 382.41-24.15 382.06-25.4 392.46-26 392.96-25 389.91-23.3 389.71-1.8 393.26-0.75ZM390.41-30.8L386.61-29.2 384.91-32.6 386.96-34.55 390.16-34.15 390.41-30.8ZM424.35-6.6L427-3.55 418.65 0.65 415.65-0.9 415.65-16.1 414.1-20.65 410.3-21.05 404.55-12.7 404.55-2.45 407.25-1.65 406.85 0.25 397.75-0.15 397.35-1.25 400-2.45 400-20.65 396.65-22.55 399.25-26 403.85-21.05 404.55-16.45 409.55-24.45 416-24.1 419.8-17.25 419-3.9 419.8-3.2 424.35-6.6ZM433.1-13.2L433.15-13.4 444.85-15.25 443.45-21.8 440.1-23.05 433.55-20.85 433.1-13.2ZM436.25-25.7L443.3-25.15 447.3-21.65 448.75-13.05 433.1-10.55 435.8-2.6 441.7-2.75 448.7-4.85 449.1-0.9 435 1.1 428.85-8 429.55-20.85 436.25-25.7ZM455.75-24.7L464-26.1 469.6-23.8 471.6-25.75 473.75-24.25 469.95-19.15 468.15-20.85 459.95-22.8 457.3-19.7 460.75-14.85 470.8-12.35 472.2-3.85 465.6 0.25 456.8-1.75 455.6 0.3 453.1-0.15 454.8-5.4 465-3 468.15-5.35 466.95-9.55 456.25-13.2 453.35-19.15 455.75-24.7ZM479.4-24.7L487.65-26.1 493.25-23.8 495.25-25.75 497.4-24.25 493.6-19.15 491.8-20.85 483.6-22.8 480.95-19.7 484.4-14.85 494.45-12.35 495.85-3.85 489.25 0.25 480.45-1.75 479.25 0.3 476.75-0.15 478.45-5.4 488.65-3 491.8-5.35 490.6-9.55 479.9-13.2 477-19.15 479.4-24.7ZM531.49-13.1L527.24-12.95 521.64-9.2 521.49-3.6 523.49-2.55Q524.49-2.6 525.34-2.65L525.34-2.65Q526.04-2.7 526.62-2.78 527.19-2.85 527.19-2.95L527.19-2.95Q527.19-2.95 527.39-3.25 527.59-3.55 527.92-4.03 528.24-4.5 528.64-5.08 529.04-5.65 529.49-6.25L529.49-6.25Q530.49-7.65 531.84-9.45L531.84-9.45 531.49-13.1ZM518.79-22.8L524.04-26.45 535.34-23.8 535.54-3.25 539.79-2.95 539.84-0.65 533.64-0.05 531.54-4.45 528.94-0.35 520.49 1.25 517.39-2.5 517.59-10.1 526.14-15.65 531.44-16.35 531.84-21.8 523.49-22.9 521.04-18.65 518.29-21.55 518.79-22.8ZM570.74-6.6L573.39-3.55 565.04 0.65 562.04-0.9 562.04-16.1 560.49-20.65 556.69-21.05 550.94-12.7 550.94-2.45 553.64-1.65 553.24 0.25 544.14-0.15 543.74-1.25 546.39-2.45 546.39-20.65 543.04-22.55 545.64-26 550.24-21.05 550.94-16.45 555.94-24.45 562.39-24.1 566.19-17.25 565.39-3.9 566.19-3.2 570.74-6.6ZM590.39-9.1L590.64-19.95 584.79-22.15 579.44-20.4 578.14-10.6 582.59-3.25 585.44-3.9 590.39-9.1ZM600.24-0.9L592.24-0.25 590.19-4.8 586.89-0.35 579.29-0.8 574.24-10.9 577.24-22.6 584.49-25.5 591.19-22.75 591.44-35.25 594.59-39 597.39-36.7 595.29-34.95 594.44-3.1 599.24-4 600.24-0.9ZM630.68-22.55L625.58-22.95 621.18-17.25 622.13-7.4 627.68-2.15 631.43-2.2 636.13-11.4 634.03-20.05 630.68-22.55ZM623.98-26.3L632.38-26.3 637.68-21.4 639.68-9.95 632.63 1.1 625.63 1.4 618.28-7.45 617.73-18.85 623.98-26.3ZM658.88-4.3L658.88-1.55 650.68 0 646.78-3.85 646.78-9 646.78-21.9 644.38-21.5 642.43-21.05 642.08-23.45 645.63-24.6 646.33-24.6 646.33-29.3 645.63-30.9 649.88-30.9 650.28-26.55 650.28-24.95 657.28-25.8 657.28-21.9 650.28-22.25 650.28-5.8 652.63-3.15 658.88-4.3ZM687.58-7L690.28-4.65 684.43 1.35 680.23-0.5 679.68-17.95 676.23-21.8 669.13-15.25 669.13-2.3 672.78-1.2 673.08 0.25 663.33 0.3 663.03-1.2 664.93-1.95 665.68-31.55 662.43-34.4 666.18-36.95 669.43-31.8 668.88-18.6 674.13-25.7 680.73-23.75 683.78-18.1 683.08-2.2 684.13-1.5 687.58-7ZM696.02-13.2L696.07-13.4 707.77-15.25 706.37-21.8 703.02-23.05 696.47-20.85 696.02-13.2ZM699.17-25.7L706.22-25.15 710.22-21.65 711.67-13.05 696.02-10.55 698.72-2.6 704.62-2.75 711.62-4.85 712.02-0.9 697.92 1.1 691.77-8 692.47-20.85 699.17-25.7ZM730.72-24.8L734.27-20.6 731.22-18 728.57-21.85 724.52-20.5 723.32-17.85 723.52-2.85 726.47-1.9 726.17-0.15 717.32-0.15 717.17-1.5 719.52-2.45 719.47-22.45 717.02-23.85 719.17-26.6 722.82-24.25 723.12-22.55 725.67-23.55 730.72-24.8ZM778.92-7L781.62-4.65 775.77 1.35 771.57-0.5 771.02-17.95 767.57-21.8 760.47-15.25 760.47-2.3 764.12-1.2 764.42 0.25 754.67 0.3 754.37-1.2 756.27-1.95 757.02-31.55 753.77-34.4 757.52-36.95 760.77-31.8 760.22-18.6 765.47-25.7 772.07-23.75 775.12-18.1 774.42-2.2 775.47-1.5 778.92-7ZM787.36-13.2L787.41-13.4 799.11-15.25 797.71-21.8 794.36-23.05 787.81-20.85 787.36-13.2ZM790.51-25.7L797.56-25.15 801.56-21.65 803.01-13.05 787.36-10.55 790.06-2.6 795.96-2.75 802.96-4.85 803.36-0.9 789.26 1.1 783.11-8 783.81-20.85 790.51-25.7ZM818.81-1.95L819.06-0.05 808.51-0.25 808.36-1.55 811.96-2.6 811.96-32.6 809.31-32.05 809.51-35.35 815.86-35.5 815.41-2.65 818.81-1.95ZM841.31-7.45L842.71-12.5 839.96-20.55 834.36-21.3 829.16-19.45 829.46-6.5 834.66-4.5 841.31-7.45ZM842.66-24.5L847.26-11.6 842.06-2.55 834.01-1 828.96-3.3 829.21 7.95 832.56 9.1 832.36 11.05 822.26 11 822.06 9.5 825.16 8.25 824.86-23 823.16-23.6 824.86-26.9 829.21-24.65 828.86-22.65 834.11-24.6 842.66-24.5ZM860.26-32.9L857.81-29.65 857.76-24.35 864.61-25.3 864.91-22.65 857.81-21.9 858.61-2.6 861.51-2.55 862.31-0.15 852.46-0.3 852.21-1.95 854.61-2.3 854.16-19.1 854.21-21.05 850.76-21.5 850.91-23.3 853.91-24.25 853.96-30.7 858.91-36.05 866.96-34.75 866.11-32 860.26-32.9ZM895.75-6.5L897.95-2.7 890.6 0.8 887.8 0.05 886.9-2.85 886.25-6.3 877.4 0.75 872.2-1.05 870.7-6.95 870.55-22.35 868.45-23.25 868.6-24.45 877.55-24.65 877.3-22.85 874.7-21.8 874.7-7.7 876.55-3.25 879.8-5.05 885.85-8.4 886.65-22.3 884.45-23.3 884.6-24.65 892.5-24.65 892.75-22.95 890.15-21.95 890-3.4 890.75-2.15 895.75-6.5ZM909.9-1.95L910.15-0.05 899.6-0.25 899.45-1.55 903.05-2.6 903.05-32.6 900.4-32.05 900.6-35.35 906.95-35.5 906.5-2.65 909.9-1.95Z" opacity="1" transform="matrix(1,0,0,1,0,0)" fill="#c6e0bd" class="undefined-text-1" data-fill-palette-color="secondary" id="text-1"></path></svg></g></svg></g></svg></g></svg></g><g transform="matrix(1,0,0,1,156.72856262290168,0)"><svg viewBox="0 0 82.06287475419666 82.06287475419664" height="82.06287475419664" width="82.06287475419666"><g><svg></svg></g><g id="icon-0"><svg viewBox="0 0 82.06287475419666 82.06287475419664" height="82.06287475419664" width="82.06287475419666"><g><path xmlns="http://www.w3.org/2000/svg" d="M24.619 82.063c-13.597 0-24.619-11.022-24.619-24.619v-32.825c0-13.597 11.022-24.619 24.619-24.619h32.825c13.597 0 24.619 11.022 24.619 24.619v32.825c0 13.597-11.022 24.619-24.619 24.619z" fill="#4d7e3e" fill-rule="nonzero" stroke="none" stroke-width="1" stroke-linecap="butt" stroke-linejoin="miter" stroke-miterlimit="10" stroke-dasharray="" stroke-dashoffset="0" font-family="none" font-weight="none" font-size="none" text-anchor="none" style="mix-blend-mode: normal" data-fill-palette-color="accent"></path></g><g transform="matrix(1,0,0,1,16.413784530470387,16.41257495083933)"><svg viewBox="0 0 49.23530569325588 49.237724852517985" height="49.237724852517985" width="49.23530569325588"><g><svg xmlns="http://www.w3.org/2000/svg" xmlns:xlink="http://www.w3.org/1999/xlink" version="1.1" x="0" y="0" viewBox="0.3583327531814575 0.3587183356285095 89.28327178955078 89.28765869140625" enable-background="new 0 0 90 90" xml:space="preserve" height="49.237724852517985" width="49.23530569325588" class="icon-a-0" data-fill-palette-color="quaternary" id="a-0"><polygon points="57.928,58.169 57.875,76.027 45.397,63.548 45.397,45.639 " fill="#8abe53" data-fill-palette-color="quaternary"></polygon><polygon points="76.027,57.875 58.475,57.927 45.826,45.279 63.432,45.279 " fill="#8abe53" data-fill-palette-color="quaternary"></polygon><polygon points="76.027,32.125 63.432,44.721 45.707,44.721 58.355,32.073 " fill="#8abe53" data-fill-palette-color="quaternary"></polygon><polygon points="44.838,45.59 44.838,63.314 32.125,76.027 32.074,58.355 " fill="#8abe53" data-fill-palette-color="quaternary"></polygon><polygon points="57.928,31.712 45.397,44.243 45.397,26.452 57.875,13.974 " fill="#8abe53" data-fill-palette-color="quaternary"></polygon><polygon points="44.838,26.687 44.838,44.291 32.074,31.526 32.125,13.974 " fill="#8abe53" data-fill-palette-color="quaternary"></polygon><polygon points="44.479,44.721 26.569,44.721 13.974,32.125 31.832,32.073 " fill="#8abe53" data-fill-palette-color="quaternary"></polygon><polygon points="44.36,45.279 31.712,57.927 13.974,57.875 26.569,45.279 " fill="#8abe53" data-fill-palette-color="quaternary"></polygon><rect x="58.48" y="58.48" width="18.049" height="18.049" fill="#8abe53" data-fill-palette-color="quaternary"></rect><polygon points="76.527,13.474 76.527,31.516 58.914,31.516 58.912,31.518 58.484,31.516 58.484,13.474 " fill="#8abe53" data-fill-palette-color="quaternary"></polygon><polygon points="31.518,30.971 31.516,31.516 13.474,31.516 13.474,13.474 31.516,13.474 31.516,30.968 " fill="#8abe53" data-fill-palette-color="quaternary"></polygon><rect x="13.471" y="58.48" width="18.05" height="18.049" fill="#8abe53" data-fill-palette-color="quaternary"></rect><rect x="67.864" y="35.981" transform="matrix(0.7071 -0.7071 0.7071 0.7071 -9.3022 67.5465)" width="18.042" height="18.042" fill="#8abe53" data-fill-palette-color="quaternary"></rect><rect x="35.979" y="4.094" transform="matrix(0.7071 -0.7071 0.7071 0.7071 3.9068 35.6621)" width="18.042" height="18.042" fill="#8abe53" data-fill-palette-color="quaternary"></rect><rect x="4.095" y="35.98" transform="matrix(0.7071 -0.7071 0.7071 0.7071 -27.9787 22.4536)" width="18.041" height="18.041" fill="#8abe53" data-fill-palette-color="quaternary"></rect><rect x="35.98" y="67.865" transform="matrix(0.7071 -0.7071 0.7071 0.7071 -41.1877 54.3437)" width="18.04" height="18.041" fill="#8abe53" data-fill-palette-color="quaternary"></rect></svg></g></svg></g></svg></g></svg></g><g></g></svg></g><defs></defs></svg><rect width="395.52" height="150.21238627309415" fill="none" stroke="none" visibility="hidden"></rect></g></svg></g></svg>